<svg
xmlns="http://www.w3.org/2000/svg"
width="200"
height="200"
viewBox="0 0 200 200"
fill="none">
<path
fill-rule="evenodd"
clip-rule="evenodd"
d="M188.69 112.28h-.03c-4.38-1.18-7.44-5.22-7.31-9.75.05-.85.05-1.71.05-2.55 0-.83 0-1.67-.03-2.51-.15-4.56 2.91-8.58 7.29-9.76h.03c5.28-1.42 8.4-6.85 7-12.12l-.74-2.73a9.844 9.844 0 0 0-9.52-7.32c-.85 0-1.71.1-2.58.35-4.39 1.17-9.06-.81-11.21-4.79-.79-1.48-1.65-2.96-2.54-4.38-2.39-3.87-1.77-8.88 1.46-12.1v-.03c3.87-3.84 3.87-10.1 0-13.96l-2-2.01c-3.84-3.83-10.1-3.86-13.97 0l-.03.04c-3.22 3.22-8.22 3.83-12.09 1.44-1.43-.88-2.91-1.74-4.38-2.53-4-2.17-5.97-6.83-4.78-11.21v-.03c1.42-5.27-1.71-10.68-6.98-12.09l-2.71-.72c-5.27-1.43-10.7 1.7-12.12 6.97v.05c-1.18 4.39-5.2 7.45-9.76 7.3-.84-.03-1.67-.03-2.54-.03-.84 0-1.67 0-2.51.03-4.53.15-8.58-2.91-9.75-7.3v-.05c-1.41-5.27-6.84-8.4-12.11-6.98l-2.73.73c-5.27 1.41-8.4 6.82-7 12.09v.03c1.19 4.38-.76 9.04-4.78 11.21-1.48.79-2.92 1.65-4.35 2.53-3.87 2.39-8.9 1.78-12.13-1.44v-.04c-3.87-3.83-10.13-3.83-14 0l-1.99 2.01c-3.86 3.86-3.86 10.12 0 13.99h.03c3.23 3.22 3.84 8.25 1.43 12.12-.89 1.43-1.73 2.88-2.52 4.36-1.72 3.24-5.07 5.13-8.62 5.13-.86 0-1.73-.12-2.59-.34-5.27-1.44-10.69 1.69-12.12 6.97l-.71 2.73c-1.43 5.27 1.7 10.7 6.97 12.12h.05c4.39 1.18 7.44 5.2 7.31 9.76-.01.84-.04 1.68-.04 2.51 0 .84.03 1.7.04 2.55.15 4.53-2.92 8.57-7.31 9.75h-.03c-5.27 1.4-8.4 6.82-6.99 12.1l.71 2.7c1.21 4.42 5.2 7.35 9.56 7.35.86 0 1.7-.13 2.56-.35 4.41-1.19 9.06.76 11.21 4.78.82 1.47 1.66 2.93 2.54 4.36 2.39 3.87 1.78 8.9-1.45 12.12l-.03.03c-3.86 3.87-3.86 10.13 0 13.97l1.99 2.01a9.86 9.86 0 0 0 7.01 2.89c2.51 0 5.04-.96 6.99-2.91 3.23-3.22 8.26-3.86 12.13-1.45 1.43.89 2.87 1.72 4.35 2.54 4.02 2.14 5.97 6.8 4.78 11.19v.02c-1.4 5.27 1.73 10.69 7 12.1l2.73.73c5.27 1.41 10.7-1.72 12.11-6.99v-.03c1.17-4.41 5.22-7.46 9.75-7.32a52.553 52.553 0 0 0 5.05 0c4.56-.14 8.58 2.91 9.76 7.32v.03c1.42 5.27 6.85 8.4 12.12 6.99l2.71-.71c5.27-1.43 8.4-6.85 6.98-12.12v-.02c-1.19-4.39.78-9.05 4.78-11.19 1.47-.82 2.95-1.65 4.38-2.54 3.87-2.41 8.87-1.77 12.09 1.43l.03.04c3.87 3.85 10.13 3.85 13.97-.02l2-1.99c3.87-3.84 3.87-10.1 0-13.97v-.03c-3.23-3.21-3.85-8.22-1.46-12.09.89-1.44 1.73-2.92 2.54-4.39 1.72-3.23 5.1-5.13 8.62-5.13.87 0 1.73.13 2.59.35 5.27 1.4 10.69-1.72 12.1-6.97l.74-2.71c1.4-5.3-1.72-10.72-7-12.12zM99.21 34c18.21 0 34.72 7.4 46.66 19.33 11.93 11.94 19.32 28.44 19.32 46.65 0 18.21-7.39 34.72-19.32 46.65-11.94 11.94-28.45 19.33-46.66 19.33-18.21 0-34.71-7.39-46.65-19.33-11.93-11.93-19.32-28.44-19.32-46.65 0-18.21 7.39-34.71 19.32-46.65C64.5 41.4 81 34 99.21 34zm43.99 22c-11.26-11.25-26.81-18.21-43.99-18.21-17.17 0-32.73 6.96-43.98 18.21S37.02 82.81 37.02 99.98c0 17.17 6.96 32.73 18.21 43.98s26.81 18.22 43.98 18.22c17.18 0 32.73-6.97 43.99-18.22 11.25-11.25 18.21-26.81 18.21-43.98 0-17.17-6.96-32.73-18.21-43.98zm-43.99.33c24.11 0 43.65 19.54 43.65 43.65s-19.54 43.65-43.65 43.65-43.65-19.54-43.65-43.65S75.1 56.33 99.21 56.33z"
fill="#000"/>
</svg>