<svg xmlns="http://www.w3.org/2000/svg" xml:space="preserve" width="1000" height="1000" style="shape-rendering:geometricPrecision;text-rendering:geometricPrecision;image-rendering:optimizeQuality;fill-rule:evenodd;clip-rule:evenodd"><defs><style>.fil1{fill:#fefefe;fill-rule:nonzero}</style></defs><g id="Слой_x0020_1"><path d="M688.63 301.76h-.06c-9.43-2.55-16.01-11.24-15.74-20.99.11-1.81.11-3.68.11-5.49 0-1.78 0-3.58-.07-5.38-.31-9.82 6.27-18.46 15.7-21h.06c11.35-3.07 18.08-14.75 15.05-26.08l-1.58-5.89a21.22 21.22 0 0 0-20.48-15.74c-1.84 0-3.7.22-5.57.75-9.44 2.53-19.49-1.72-24.11-10.29-1.7-3.19-3.55-6.37-5.46-9.43-5.14-8.32-3.81-19.1 3.13-26.03v-.08c8.33-8.25 8.33-21.71 0-30.03l-4.29-4.31c-8.28-8.25-21.73-8.31-30.06 0l-.05.07c-6.94 6.95-17.7 8.26-26.03 3.12-3.07-1.9-6.26-3.76-9.43-5.46-8.6-4.67-12.84-14.67-10.29-24.12v-.05c3.07-11.35-3.66-23-15-26.03l-5.83-1.54c-11.35-3.07-23.01 3.67-26.09 15.01v.1c-2.54 9.45-11.17 16.02-20.98 15.7-1.82-.07-3.6-.07-5.48-.07-1.79 0-3.59 0-5.39.07-9.76.32-18.46-6.25-20.99-15.7v-.1c-3.02-11.34-14.7-18.08-26.04-15.04l-5.87 1.57c-11.35 3.03-18.09 14.68-15.07 26.03v.05c2.57 9.45-1.64 19.45-10.28 24.12-3.17 1.7-6.29 3.56-9.36 5.46-8.33 5.14-19.15 3.83-26.1-3.12v-.07c-8.33-8.25-21.79-8.25-30.12 0l-4.27 4.31c-8.31 8.32-8.31 21.78 0 30.11h.05c6.94 6.93 8.26 17.75 3.08 26.06-1.92 3.09-3.72 6.21-5.43 9.4-3.7 6.95-10.91 11.03-18.53 11.03-1.87 0-3.72-.26-5.58-.74-11.35-3.08-23 3.65-26.08 14.99l-1.53 5.89c-3.08 11.33 3.66 23.01 15 26.08h.1c9.44 2.54 16.02 11.18 15.75 21-.04 1.8-.11 3.6-.11 5.38 0 1.81.07 3.68.11 5.49.31 9.75-6.31 18.44-15.75 20.99h-.06c-11.33 3-18.07 14.67-15.04 26.02l1.53 5.81c2.61 9.52 11.19 15.81 20.57 15.81 1.84 0 3.65-.25 5.51-.74 9.5-2.56 19.5 1.64 24.11 10.28 1.77 3.18 3.58 6.31 5.48 9.38 5.13 8.33 3.81 19.15-3.13 26.07l-.05.07c-8.31 8.32-8.31 21.8 0 30.06l4.27 4.33c4.14 4.15 9.6 6.22 15.09 6.22 5.38 0 10.84-2.07 15.03-6.26 6.95-6.94 17.77-8.31 26.1-3.13 3.07 1.91 6.19 3.71 9.36 5.47 8.64 4.6 12.85 14.62 10.28 24.06v.06c-3.02 11.34 3.72 23 15.07 26.02l5.87 1.59c11.34 3.02 23.02-3.71 26.04-15.05v-.06c2.53-9.49 11.23-16.06 20.99-15.75 1.8.07 3.6.13 5.39.13 1.88 0 3.66-.06 5.48-.13 9.81-.31 18.44 6.26 20.98 15.75v.06c3.08 11.34 14.74 18.07 26.09 15.05l5.83-1.54c11.34-3.07 18.07-14.73 15-26.07v-.06c-2.55-9.44 1.69-19.46 10.29-24.06 3.17-1.76 6.36-3.56 9.43-5.47 8.33-5.18 19.09-3.81 26.03 3.09l.05.08c8.33 8.28 21.78 8.28 30.06-.04l4.29-4.29c8.33-8.26 8.33-21.74 0-30.06v-.07c-6.94-6.89-8.27-17.68-3.13-26.01 1.91-3.08 3.72-6.26 5.46-9.44 3.71-6.94 10.96-11.03 18.55-11.03 1.86 0 3.71.27 5.56.75 11.36 3.02 23.01-3.72 26.05-15l1.58-5.82c3.03-11.41-3.7-23.08-15.05-26.08zM496.11 133.35c39.18 0 74.7 15.9 100.38 41.57 25.68 25.68 41.58 61.2 41.58 100.38 0 39.18-15.9 74.69-41.58 100.36-25.68 25.69-61.2 41.59-100.38 41.59-39.17 0-74.69-15.9-100.37-41.59-25.67-25.67-41.57-61.18-41.57-100.36s15.9-74.7 41.57-100.38c25.68-25.67 61.2-41.57 100.37-41.57zm94.63 47.32c-24.2-24.2-57.67-39.19-94.63-39.19-36.94 0-70.41 14.99-94.62 39.19-24.2 24.21-39.18 57.67-39.18 94.63 0 36.94 14.98 70.42 39.18 94.62 24.21 24.21 57.68 39.19 94.62 39.19 36.96 0 70.43-14.98 94.63-39.19 24.21-24.2 39.19-57.68 39.19-94.62 0-36.96-14.98-70.42-39.19-94.63zm-94.63.71c51.87 0 93.92 42.05 93.92 93.92 0 51.87-42.05 93.9-93.92 93.9-51.86 0-93.91-42.03-93.91-93.9 0-51.87 42.05-93.92 93.91-93.92z" style="fill:#e42a24;fill-rule:nonzero"/><path d="M961.23 746.87h-.06c-9.43-2.55-16.01-11.24-15.75-20.99.11-1.81.11-3.68.11-5.49 0-1.77 0-3.59-.06-5.38-.31-9.82 6.27-18.46 15.7-21h.06c11.34-3.07 18.08-14.74 15.04-26.08l-1.58-5.88a21.211 21.211 0 0 0-20.48-15.75c-1.84 0-3.69.21-5.56.75-9.44 2.53-19.49-1.73-24.12-10.29-1.69-3.19-3.55-6.37-5.46-9.43-5.14-8.32-3.8-19.1 3.14-26.03v-.08c8.33-8.24 8.33-21.71 0-30.03l-4.29-4.31c-8.28-8.26-21.73-8.31-30.07 0l-.05.07c-6.94 6.94-17.7 8.26-26.02 3.12-3.08-1.9-6.26-3.76-9.43-5.46-8.6-4.67-12.84-14.68-10.29-24.11v-.06c3.06-11.35-3.66-22.99-15.01-26.02l-5.82-1.55c-11.35-3.07-23.01 3.67-26.09 15.01v.1c-2.54 9.45-11.17 16.02-20.99 15.7-1.81-.07-3.59-.07-5.47-.07-1.8 0-3.6 0-5.39.07-9.76.32-18.47-6.25-21-15.7v-.1c-3.02-11.34-14.69-18.08-26.03-15.04l-5.88 1.58c-11.34 3.03-18.08 14.67-15.06 26.02v.06c2.57 9.43-1.64 19.44-10.28 24.11-3.17 1.7-6.29 3.56-9.37 5.46-8.32 5.14-19.14 3.82-26.09-3.12v-.07c-8.33-8.26-21.79-8.26-30.12 0l-4.28 4.31c-8.31 8.32-8.31 21.79 0 30.11h.05c6.95 6.93 8.27 17.76 3.08 26.07-1.91 3.08-3.71 6.2-5.43 9.39-3.69 6.96-10.9 11.03-18.53 11.03-1.86 0-3.72-.26-5.57-.74-11.35-3.08-23 3.65-26.07 15l-1.54 5.88c-3.08 11.34 3.65 23.01 14.99 26.08h.11c9.44 2.54 16.02 11.18 15.75 21-.04 1.79-.11 3.61-.11 5.38 0 1.81.07 3.68.11 5.49.31 9.75-6.31 18.44-15.75 20.99h-.06c-11.33 3.01-18.07 14.67-15.04 26.02l1.54 5.82c2.6 9.51 11.18 15.8 20.55 15.8 1.85 0 3.66-.26 5.52-.74 9.49-2.56 19.5 1.65 24.1 10.28 1.78 3.18 3.58 6.31 5.49 9.38 5.13 8.33 3.81 19.15-3.14 26.07l-.05.07c-8.31 8.32-8.31 21.8 0 30.06l4.28 4.33c4.14 4.15 9.6 6.22 15.09 6.22 5.38 0 10.84-2.07 15.03-6.26 6.95-6.94 17.77-8.31 26.09-3.13 3.08 1.92 6.2 3.71 9.37 5.47 8.64 4.6 12.85 14.62 10.28 24.06v.06c-3.02 11.34 3.72 22.99 15.06 26.02l5.88 1.59c11.34 3.02 23.01-3.71 26.03-15.05v-.06c2.53-9.49 11.24-16.06 21-15.75 1.79.07 3.59.13 5.39.13 1.88 0 3.66-.06 5.47-.13 9.82-.31 18.45 6.26 20.99 15.75v.06c3.08 11.34 14.74 18.07 26.09 15.05l5.82-1.54c11.35-3.08 18.07-14.73 15.01-26.07v-.06c-2.55-9.44 1.69-19.46 10.29-24.06 3.17-1.76 6.35-3.55 9.43-5.47 8.32-5.18 19.08-3.81 26.02 3.08l.05.09c8.34 8.28 21.79 8.28 30.07-.04l4.29-4.29c8.33-8.26 8.33-21.74 0-30.06v-.07c-6.94-6.89-8.28-17.68-3.14-26.01 1.91-3.08 3.72-6.26 5.46-9.44 3.71-6.94 10.97-11.03 18.56-11.03 1.85 0 3.71.27 5.56.75 11.35 3.02 23.01-3.71 26.04-15l1.58-5.83c3.04-11.4-3.7-23.06-15.04-26.07zM768.72 578.46c39.18 0 74.69 15.9 100.36 41.57 25.69 25.69 41.59 61.2 41.59 100.38 0 39.18-15.9 74.69-41.59 100.37-25.67 25.68-61.18 41.58-100.36 41.58s-74.7-15.9-100.38-41.58c-25.67-25.68-41.58-61.19-41.58-100.37 0-39.18 15.91-74.69 41.58-100.38 25.68-25.67 61.2-41.57 100.38-41.57zm94.62 47.32c-24.2-24.2-57.67-39.18-94.62-39.18-36.96 0-70.43 14.98-94.63 39.18-24.2 24.21-39.19 57.67-39.19 94.63 0 36.94 14.99 70.42 39.19 94.62 24.2 24.21 57.67 39.19 94.63 39.19 36.95 0 70.42-14.98 94.62-39.19 24.2-24.2 39.18-57.68 39.18-94.62 0-36.96-14.98-70.42-39.18-94.63zm-94.62.71c51.87 0 93.9 42.05 93.9 93.92 0 51.86-42.03 93.91-93.9 93.91-51.87 0-93.92-42.05-93.92-93.91 0-51.87 42.05-93.92 93.92-93.92zM416.04 746.87h-.07c-9.42-2.55-16.01-11.24-15.74-20.99.11-1.81.11-3.68.11-5.49 0-1.77 0-3.59-.07-5.38-.31-9.82 6.28-18.46 15.7-21h.07c11.35-3.07 18.07-14.74 15.04-26.08l-1.59-5.88a21.2 21.2 0 0 0-20.47-15.75c-1.84 0-3.69.21-5.56.75-9.45 2.53-19.5-1.73-24.12-10.29-1.69-3.19-3.54-6.37-5.46-9.43-5.14-8.32-3.8-19.1 3.13-26.03v-.08c8.33-8.24 8.33-21.71 0-30.03l-4.29-4.31c-8.27-8.26-21.74-8.31-30.06 0l-.06.07c-6.92 6.94-17.69 8.26-26.02 3.12-3.07-1.9-6.26-3.76-9.42-5.46-8.61-4.67-12.85-14.68-10.29-24.11v-.06c3.07-11.35-3.67-22.99-15.01-26.02l-5.82-1.55c-11.36-3.07-23.02 3.67-26.1 15.01v.1c-2.54 9.45-11.17 16.02-20.98 15.7-1.82-.07-3.59-.07-5.48-.07-1.79 0-3.59 0-5.38.07-9.77.32-18.47-6.25-21-15.7v-.1c-3.01-11.34-14.7-18.08-26.04-15.04l-5.87 1.58c-11.34 3.03-18.08 14.67-15.06 26.02v.06c2.56 9.43-1.65 19.44-10.28 24.11-3.18 1.7-6.3 3.56-9.38 5.46-8.31 5.14-19.13 3.82-26.09-3.12v-.07c-8.32-8.26-21.79-8.26-30.11 0l-4.28 4.31c-8.32 8.32-8.32 21.79 0 30.11h.05c6.95 6.93 8.26 17.76 3.08 26.07-1.92 3.08-3.71 6.2-5.43 9.39-3.7 6.96-10.9 11.03-18.53 11.03-1.86 0-3.72-.26-5.57-.74-11.35-3.08-23.01 3.65-26.08 15l-1.54 5.88c-3.07 11.34 3.66 23.01 15 26.08h.1c9.45 2.54 16.03 11.18 15.75 21-.04 1.79-.11 3.61-.11 5.38 0 1.81.07 3.68.11 5.49.3 9.75-6.3 18.44-15.75 20.99h-.05c-11.34 3.01-18.07 14.67-15.05 26.02l1.54 5.82c2.61 9.51 11.18 15.8 20.56 15.8 1.85 0 3.65-.26 5.52-.74 9.49-2.56 19.49 1.65 24.1 10.28 1.77 3.18 3.58 6.31 5.48 9.38 5.13 8.33 3.82 19.15-3.13 26.07l-.05.07c-8.32 8.32-8.32 21.8 0 30.06l4.28 4.33c4.13 4.15 9.59 6.22 15.08 6.22 5.38 0 10.84-2.07 15.03-6.26 6.96-6.94 17.78-8.31 26.09-3.13 3.08 1.92 6.2 3.71 9.38 5.47 8.63 4.6 12.84 14.62 10.28 24.06v.06c-3.02 11.34 3.72 22.99 15.06 26.02l5.87 1.59c11.34 3.02 23.03-3.71 26.04-15.05v-.06c2.53-9.49 11.23-16.06 21-15.75 1.79.07 3.59.13 5.38.13 1.89 0 3.66-.06 5.48-.13 9.81-.31 18.44 6.26 20.98 15.75v.06c3.08 11.34 14.74 18.07 26.1 15.05l5.82-1.54c11.34-3.08 18.08-14.73 15.01-26.07v-.06c-2.56-9.44 1.68-19.46 10.29-24.06 3.16-1.76 6.35-3.55 9.42-5.47 8.33-5.18 19.1-3.81 26.02 3.08l.06.09c8.32 8.28 21.79 8.28 30.06-.04l4.29-4.29c8.33-8.26 8.33-21.74 0-30.06v-.07c-6.93-6.89-8.27-17.68-3.13-26.01 1.92-3.08 3.72-6.26 5.46-9.44 3.7-6.94 10.97-11.03 18.55-11.03 1.86 0 3.72.27 5.57.75 11.35 3.02 23.01-3.71 26.03-15l1.59-5.83c3.03-11.4-3.69-23.06-15.04-26.07zM223.52 578.46c39.18 0 74.7 15.9 100.37 41.57 25.68 25.69 41.58 61.2 41.58 100.38 0 39.18-15.9 74.69-41.58 100.37-25.67 25.68-61.19 41.58-100.37 41.58-39.18 0-74.7-15.9-100.37-41.58-25.68-25.68-41.58-61.19-41.58-100.37 0-39.18 15.9-74.69 41.58-100.38 25.67-25.67 61.19-41.57 100.37-41.57zm94.63 47.32c-24.21-24.2-57.68-39.18-94.63-39.18-36.94 0-70.42 14.98-94.62 39.18-24.21 24.21-39.2 57.67-39.2 94.63 0 36.94 14.99 70.42 39.2 94.62 24.2 24.21 57.68 39.19 94.62 39.19 36.95 0 70.42-14.98 94.63-39.19 24.2-24.2 39.18-57.68 39.18-94.62 0-36.96-14.98-70.42-39.18-94.63zm-94.63.71c51.86 0 93.91 42.05 93.91 93.92 0 51.86-42.05 93.91-93.91 93.91-51.87 0-93.91-42.05-93.91-93.91 0-51.87 42.04-93.92 93.91-93.92z" class="fil1"/></g></svg>
